<svg width="400" height="600" viewBox="0 0 400 600" fill="none" xmlns="http://www.w3.org/2000/svg">
<rect width="400" height="600" fill="#213172"/>
<mask id="mask0_3185_496" style="mask-type:luminance" maskUnits="userSpaceOnUse" x="0" y="34" width="400" height="566">
<path d="M400 34H0V599.665H400V34Z" fill="white"/>
</mask>
<g mask="url(#mask0_3185_496)">
<path d="M337.847 374.939H335.947V358.595C259.349 338.546 204.039 305.098 195.391 238.678C187.123 302.532 135.804 334.08 64.053 356.125V375.034H62.1523C34.8774 375.034 12.7344 397.174 12.7344 424.445C12.7344 451.717 34.8774 473.857 62.1523 473.857H64.8133C72.0359 542.177 129.817 595.39 200.047 595.39C270.278 595.39 328.059 542.177 335.281 473.857H337.942C365.217 473.857 387.36 451.717 387.36 424.445C387.36 397.174 365.122 374.939 337.847 374.939Z" fill="#FFD3FF"/>
<path d="M338.038 372.849V358.596C338.038 357.646 337.372 356.79 336.517 356.6C249.18 333.7 204.989 296.167 197.482 238.393C197.387 237.348 196.436 236.588 195.391 236.588C194.345 236.588 193.49 237.348 193.3 238.393C186.077 293.791 147.208 328.379 63.388 354.035C62.5327 354.32 61.8674 355.08 61.8674 356.03V372.849C33.5472 372.944 10.5488 396.034 10.5488 424.351C10.5488 452.762 33.6422 475.853 62.0575 475.853H62.9128C71.1808 545.219 129.722 597.386 199.952 597.386C270.183 597.386 328.724 545.314 336.992 475.853H337.847C366.263 475.853 389.356 452.762 389.356 424.351C389.356 395.939 366.358 372.944 338.038 372.849ZM62.0575 471.672C35.923 471.672 14.7303 450.387 14.7303 424.351C14.7303 398.315 35.828 377.125 61.8674 377.03V459.414C61.8674 461.6 61.9625 463.88 62.0575 466.161C62.0575 466.921 62.1525 467.681 62.2476 468.441C62.3426 469.581 62.3426 470.627 62.4376 471.767H62.0575V471.672ZM199.952 593.205C131.243 593.205 74.0318 541.798 66.8092 473.572C66.334 468.821 66.0489 464.07 66.0489 459.319V374.845V357.551C144.642 333.225 184.177 300.823 195.296 250.651C207.175 303.293 251.556 338.356 333.761 360.116V374.845V459.319C333.761 463.975 333.476 468.726 333.001 473.477C325.873 541.798 268.662 593.205 199.952 593.205ZM337.847 471.672H337.467C337.562 470.532 337.657 469.486 337.657 468.346C337.752 467.586 337.752 466.826 337.847 466.066C337.942 463.785 338.038 461.505 338.038 459.319V377.03C364.077 377.125 385.175 398.315 385.175 424.351C385.175 450.482 363.982 471.672 337.847 471.672Z" fill="#213082"/>
<path d="M138.464 418.08C131.527 418.08 125.92 423.686 125.92 430.623C125.92 437.56 131.527 443.166 138.464 443.166C145.402 443.166 151.009 437.56 151.009 430.623C151.009 423.686 145.402 418.08 138.464 418.08Z" fill="#213082"/>
<path d="M263.72 418.08C256.783 418.08 251.176 423.686 251.176 430.623C251.176 437.56 256.783 443.166 263.72 443.166C270.658 443.166 276.265 437.56 276.265 430.623C276.36 423.686 270.658 418.08 263.72 418.08Z" fill="#213082"/>
<path d="M360.56 415.323L349.726 423.115C348.776 423.78 348.205 424.921 348.11 426.061C348.11 427.201 348.586 428.341 349.441 429.102L359.039 437.083C359.419 437.369 359.895 437.559 360.37 437.559C360.94 437.559 361.605 437.274 361.985 436.798C362.746 435.943 362.556 434.613 361.7 433.853L352.577 426.251L363.031 418.744C363.981 418.079 364.171 416.749 363.506 415.799C362.841 414.848 361.51 414.658 360.56 415.323Z" fill="#213082"/>
<path d="M48.752 423.115L37.918 415.323C36.9677 414.658 35.6372 414.848 34.972 415.799C34.3067 416.749 34.4968 418.079 35.4471 418.744L45.9009 426.251L36.7776 433.853C35.9223 434.613 35.7322 435.943 36.4925 436.798C36.8726 437.274 37.5379 437.559 38.1081 437.559C38.5833 437.559 39.0584 437.369 39.4386 437.083L49.0371 429.102C49.9874 428.341 50.4626 427.201 50.3675 426.061C50.2725 424.826 49.7023 423.78 48.752 423.115Z" fill="#213082"/>
<path d="M163.174 340.066C158.803 336.265 148.729 333.319 136.565 335.98C124.495 338.735 116.417 345.672 113.946 350.993C111.285 356.504 113.376 360.02 116.797 360.685C120.409 361.35 124.59 360.02 128.677 358.975C132.763 357.835 136.945 356.694 140.651 355.934C144.262 355.079 148.539 354.319 152.815 353.654C156.997 352.894 161.369 352.323 164.315 350.233C167.261 348.047 167.736 343.961 163.174 340.066Z" fill="#213082"/>
<path d="M259.918 336.454C247.564 335.029 237.871 339.02 233.879 343.296C229.698 347.667 230.648 351.658 233.784 353.368C237.015 355.174 241.387 355.269 245.568 355.649C249.845 355.839 254.121 356.219 257.828 356.694C261.534 357.169 265.811 357.739 270.087 358.499C274.269 359.165 278.64 360.02 282.062 358.975C285.388 358.024 287.193 354.224 283.962 349.092C281.016 344.056 272.273 337.975 259.918 336.454Z" fill="#213082"/>
<path d="M210.881 419.219C206.414 419.219 202.898 415.608 202.898 411.237V362.776C202.898 361.636 201.948 360.686 200.807 360.686C199.667 360.686 198.717 361.636 198.717 362.776V411.237C198.717 417.984 204.228 423.495 211.166 423.495C216.773 423.495 221.43 428.056 221.43 433.947C221.43 447.06 210.786 457.703 197.671 457.703H185.222C184.081 457.703 183.131 458.653 183.131 459.793C183.131 460.934 184.081 461.884 185.222 461.884H197.671C213.067 461.884 225.706 449.341 225.706 433.662C225.516 425.68 219.054 419.219 210.881 419.219Z" fill="#213082"/>
<path d="M278.925 373.988C252.981 373.988 231.598 393.468 228.367 418.554C203.183 399.739 180.184 413.802 174.007 418.268C170.776 393.278 149.393 373.988 123.544 373.988C95.4137 373.988 72.6055 396.889 72.6055 424.92C72.6055 453.046 95.5088 475.852 123.544 475.852C151.674 475.852 174.482 452.951 174.482 424.92C174.482 424.445 174.387 424.065 174.387 423.59C174.768 423.495 175.148 423.4 175.528 423.115C176.478 422.259 199.952 402.21 226.561 423.21C226.941 423.495 227.417 423.685 227.892 423.685C227.892 424.065 227.797 424.54 227.797 424.92C227.797 453.046 250.7 475.852 278.735 475.852C306.77 475.852 329.674 452.951 329.674 424.92C329.864 396.889 307.055 373.988 278.925 373.988ZM123.639 471.196C98.1697 471.196 77.4522 450.481 77.4522 425.015C77.4522 399.549 98.1697 378.834 123.639 378.834C149.108 378.834 169.826 399.549 169.826 425.015C169.826 450.481 149.108 471.196 123.639 471.196ZM278.925 471.196C253.456 471.196 232.739 450.481 232.739 425.015C232.739 399.549 253.456 378.834 278.925 378.834C304.395 378.834 325.112 399.549 325.112 425.015C325.112 450.481 304.395 471.196 278.925 471.196Z" fill="#F96400"/>
<path d="M83.4398 445.731L-30.6016 453.048L-22.9988 454.663L-16.1563 456.088L-3.80185 458.749L8.4576 461.41L172.582 496.283C174.958 497.233 177.334 497.993 179.71 498.658C181.325 499.133 182.941 499.513 184.461 499.893C185.792 500.178 187.027 500.369 188.358 500.654C189.023 500.749 189.688 500.844 190.449 500.939C191.399 501.034 192.254 501.129 193.205 501.224C169.636 464.545 127.726 442.88 83.4398 445.731Z" fill="#FFFAF7"/>
<path d="M171.727 496.282V801.872L-42.1955 762.723L-43.0508 450.672L171.727 496.282Z" fill="#2DAE85"/>
<path d="M228.273 495.523V801.113L442.196 761.964L443.051 449.912L228.273 495.523Z" fill="#2DAE85"/>
<path d="M171.727 496.283V801.873C189.688 806.719 208.6 806.719 226.466 801.873V496.283C208.885 503.22 189.308 503.22 171.727 496.283Z" fill="#F96400"/>
<path d="M314.373 445.731C269.992 442.88 228.082 464.545 204.514 501.319C205.464 501.224 206.319 501.129 207.175 501.034C207.84 500.939 208.41 500.844 209.075 500.749C210.311 500.559 211.546 500.369 212.877 500.178C214.397 499.893 215.823 499.608 217.343 499.228C220.384 498.468 223.521 497.423 226.467 496.283L390.971 461.315L403.231 458.654L415.585 455.993H415.68L429.365 453.048L314.373 445.731Z" fill="#FFFAF7"/>
<path d="M443.431 448.961C442.956 448.581 442.29 448.391 441.625 448.581L430.031 451.051L315.324 443.64C270.848 440.694 228.273 462.644 204.229 499.227C200.903 499.417 197.577 499.417 194.25 499.132C170.207 462.549 127.631 440.694 83.2501 443.64L-30.5061 450.956L-41.8152 448.581C-42.4805 448.486 -43.0507 448.581 -43.5259 448.961C-44.001 449.341 -44.2861 450.006 -44.2861 450.576L-43.4308 762.723C-43.4308 763.768 -42.6705 764.623 -41.7202 764.813L172.107 803.962C181.231 806.433 190.544 807.668 199.952 807.668C209.361 807.668 218.674 806.433 227.797 803.962L441.625 764.813C442.575 764.623 443.336 763.768 443.336 762.723L444.191 450.576C444.286 450.006 444.001 449.436 443.431 448.961ZM307.531 447.63C310.002 447.63 312.568 447.725 315.039 447.916L414.92 454.377L403.896 456.753L314.564 460.458C281.777 460.933 238.061 476.422 212.877 498.372C211.832 498.562 210.786 498.752 209.741 498.847C231.789 467.11 268.567 447.63 307.531 447.63ZM226.942 494.191C226.847 494.191 226.752 494.286 226.657 494.286C225.422 494.761 224.186 495.236 222.856 495.616C246.709 478.132 283.013 464.924 314.754 464.449L379.377 461.789L226.942 494.191ZM83.5352 447.821C125.255 445.16 165.265 465.019 188.738 498.562C187.598 498.372 186.458 498.182 185.317 497.897C160.038 476.137 116.607 460.839 84.0104 460.363L-3.80146 456.658L-15.3957 454.187L83.5352 447.821ZM173.343 494.286C173.248 494.286 173.153 494.191 172.963 494.191L20.9075 461.884L83.9153 464.544C114.992 465.019 150.534 477.752 174.388 494.761C174.103 494.571 173.723 494.476 173.343 494.286ZM-40.1046 453.237L170.492 497.992V799.401L-39.2493 761.012L-40.1046 453.237ZM174.673 800.256V499.322C191.114 505.119 208.886 505.119 225.232 499.322V800.256C208.696 804.437 191.304 804.437 174.673 800.256ZM439.154 761.012L229.413 799.401V497.992L440.009 453.237L439.154 761.012Z" fill="#213082"/>
</g>
</svg>
