<svg width="128" height="128" viewBox="0 0 128 128" fill="none" xmlns="http://www.w3.org/2000/svg">
<path d="M91.3285 79.1572V93.7135L74.9322 95.681L74.3675 95.6081C71.6165 94.9705 69.4668 89.5415 69.4668 82.9284C69.4668 75.878 71.908 70.1757 74.9322 70.1757L119.913 64.7832C117.162 65.4208 115.012 70.8498 115.012 77.463C115.012 84.5134 117.453 90.2156 120.477 90.2156L102.259 92.4018V77.8273L91.3285 79.139V79.1572Z" fill="#EAEAEA"/>
<path d="M102.259 92.4006V101.145L96.7935 93.8581L91.3281 102.967V93.7123V79.1561L102.259 77.8262V92.4006Z" fill="#ED1C24"/>
<path d="M120.478 90.2156L119.166 90.3796L102.26 92.4018V86.9364C104.301 86.6761 106.175 85.6703 107.52 84.1122C108.865 82.5542 109.587 80.5539 109.547 78.4959C109.547 78.4012 109.547 78.3138 109.547 78.2099V78.137C109.56 77.3124 109.398 76.4943 109.07 75.7373C108.743 74.9803 108.258 74.3017 107.648 73.7467C107.037 73.1917 106.316 72.7731 105.532 72.5186C104.747 72.2641 103.917 72.1796 103.098 72.2708L74.9325 75.6412C74.3177 75.7045 73.7282 75.9194 73.2169 76.2666C72.7057 76.6138 72.2885 77.0825 72.003 77.6306C71.0195 79.1321 70.4731 80.8776 70.4248 82.6719C70.3766 84.4662 70.8284 86.2386 71.7297 87.7908C71.9889 88.3399 72.3561 88.8312 72.8093 89.2353C73.2625 89.6394 73.7925 89.948 74.3677 90.1427L74.9325 90.2156L91.3287 88.2481V93.7135L74.9325 95.681L74.3677 95.6081C74.1899 95.572 74.0181 95.5106 73.8576 95.426C73.6921 95.3487 73.5336 95.2573 73.3839 95.1527C73.3699 95.1514 73.3569 95.1449 73.3475 95.1345C73.22 95.0434 73.0742 94.9341 72.9467 94.8248C72.7629 94.6559 72.5924 94.4732 72.4366 94.2782C72.2825 94.1011 72.1424 93.9123 72.0176 93.7135C71.7356 93.3022 71.4858 92.8698 71.2706 92.42C71.1249 92.1103 70.9973 91.7824 70.8516 91.4362C70.7605 91.1812 70.6694 90.9079 70.5783 90.6346C70.4657 90.3255 70.3744 90.0089 70.3051 89.6873C70.214 89.3776 70.1411 89.0497 70.0682 88.7217C69.8386 87.7139 69.6803 86.6912 69.5946 85.6611V85.6064C69.5058 84.7166 69.4632 83.8227 69.467 82.9284C69.467 75.878 71.9083 70.1757 74.9325 70.1757L119.913 64.7832C119.846 64.7892 119.783 64.8145 119.731 64.8561C117.071 65.6577 115.012 70.9956 115.012 77.463C115.012 84.5134 117.453 90.2156 120.478 90.2156Z" fill="#DAD4D4"/>
<path d="M98.6153 78.2634V81.5882C98.6409 83.8876 97.9641 86.1401 96.6753 88.0446C95.3864 89.949 93.547 91.4147 91.4028 92.2458L91.3281 92.2731V102.967L96.7935 93.8581L102.259 101.145V77.8262L98.6153 78.2634Z" fill="#C1272D"/>
<path d="M120.477 31.9182L120.076 31.9729L74.9316 37.3836L30.5707 32.155H30.5524L22.1904 31.1713L12.9902 30.0964L55.3108 25.0136C57.4529 24.7585 59.6178 24.7585 61.76 25.0136L120.477 31.9182Z" fill="#7070F2"/>
<path d="M120.477 48.3143L120.076 48.3689L74.9317 53.7797C74.7962 53.7807 74.6612 53.7623 74.5309 53.725C72.7091 53.2696 71.2881 49.8081 71.2881 45.5815C71.2881 41.0452 72.9277 37.3834 74.9317 37.3834L120.076 31.9727C118.254 32.4281 116.833 35.8895 116.833 40.1161C116.833 44.6524 118.473 48.3143 120.477 48.3143Z" fill="#EAEAEA"/>
<path d="M120.477 64.7107C120.286 64.708 120.096 64.7326 119.912 64.7836L74.9317 70.1762C74.7962 70.1771 74.6612 70.1587 74.5309 70.1215C72.7091 69.6661 71.2881 66.2046 71.2881 61.978C71.2881 57.4417 72.9277 53.7799 74.9317 53.7799L120.076 48.3691C118.254 48.8246 116.833 52.286 116.833 56.5126C116.833 61.0489 118.473 64.7107 120.477 64.7107Z" fill="#EAEAEA"/>
<path d="M120.076 48.3691C118.91 48.6606 117.908 50.1727 117.343 52.3407L74.9317 57.4235C73.2192 57.4235 71.7618 60.1198 71.3792 63.7634C71.3245 63.1986 71.2881 62.5974 71.2881 61.978C71.2881 57.4417 72.9277 53.7799 74.9317 53.7799L120.076 48.3691Z" fill="#DAD4D4"/>
<path d="M120.076 31.9727C118.91 32.2641 117.908 33.7762 117.343 35.9442L74.9317 41.027C73.2192 41.027 71.7618 43.7233 71.3792 47.3669C71.3245 46.8022 71.2881 46.201 71.2881 45.5815C71.2881 41.0452 72.9277 37.3834 74.9317 37.3834L120.076 31.9727Z" fill="#DAD4D4"/>
<path d="M30.5707 32.1543L74.9316 37.3829C72.9277 37.3829 71.288 41.0447 71.288 45.581C71.288 49.8076 72.709 53.269 74.5308 53.7245L61.4503 52.1942L53.4343 51.2468L29.6233 48.4412C28.7909 46.0605 28.4019 43.5474 28.4756 41.0265C28.4756 36.7452 29.3501 33.1381 30.5525 32.1543H30.5707Z" fill="#5E5EEA"/>
<path d="M74.531 53.7237C74.6613 53.7609 74.7963 53.7793 74.9318 53.7783C72.9278 53.7783 71.2882 57.4402 71.2882 61.9765C71.2882 66.203 72.7092 69.6645 74.531 70.1199L63.3634 68.8082L60.3209 68.4621C59.3661 66.1165 58.913 63.5969 58.991 61.0655C58.991 56.7479 60.0477 53.1225 61.4505 52.1934L74.531 53.7237Z" fill="#99E0D4"/>
<path d="M74.5311 70.1203C74.6614 70.1575 74.7963 70.1759 74.9319 70.1749C71.9077 70.1749 69.4664 75.8772 69.4664 82.9276C69.4664 89.5407 71.6162 94.9697 74.3671 95.6073L63.4909 94.3321C61.6509 92.073 60.3574 87.1724 60.3574 81.4884C60.3574 75.9501 61.578 71.1587 63.3634 68.8086L74.5311 70.1203Z" fill="#FFCA3A"/>
<path d="M63.491 94.3322L56.1309 93.476C54.3091 91.1623 53.0703 86.3163 53.0703 80.7233C53.0703 75.1304 54.3274 70.2662 56.1492 67.9707L60.3211 68.4626L63.3635 68.8087C61.5781 71.1589 60.3575 75.9502 60.3575 81.4885C60.3575 87.1725 61.651 92.0732 63.491 94.3322Z" fill="#F7931E"/>
<path d="M53.435 51.2461L61.4509 52.1934C60.0481 53.1226 58.9915 56.7479 58.9915 61.0656C58.9135 63.5969 59.3665 66.1165 60.3214 68.4622L56.1495 67.9703L53.1799 67.6241C51.7287 65.0804 51.0572 62.1662 51.2488 59.2438C51.2229 56.4269 51.9797 53.6581 53.435 51.2461Z" fill="#7070F2"/>
<path d="M53.1795 67.6258L56.1491 67.9719C54.3273 70.2674 53.0702 75.1134 53.0702 80.7245C53.0702 86.3357 54.3091 91.1635 56.1309 93.4772L26.5812 89.9975C24.6783 86.2589 23.7746 82.0918 23.9578 77.9007C23.9578 71.7795 25.4699 66.5691 27.565 64.6016L53.1795 67.6258Z" fill="#FFCA3A"/>
<path d="M29.6234 48.4415L53.4344 51.2471C51.9791 53.6591 51.2222 56.4279 51.2482 59.2448C51.0566 62.1672 51.7281 65.0814 53.1793 67.6251L27.5647 64.6009L20.2593 63.7447L12.9903 62.8884C10.9863 62.8884 9.34668 59.2266 9.34668 54.6903C9.34668 50.154 10.9863 46.4922 12.9903 46.4922L21.8989 47.5306V47.5488L29.6234 48.4415Z" fill="#99E0D4"/>
<path d="M74.5306 70.1197L63.363 68.808L60.3206 68.4619C59.6546 66.9178 59.2483 65.2742 59.1182 63.5977L71.5611 65.0187C72.0348 67.7696 73.1643 69.7736 74.5306 70.1197Z" fill="#5BD3C7"/>
<path d="M60.3214 68.4633L56.1495 67.9714L53.18 67.6253C52.2214 66.157 51.6453 64.4724 51.5039 62.7246L59.1191 63.5991C59.2492 65.2756 59.6555 66.9192 60.3214 68.4633Z" fill="#5858DD"/>
<path d="M53.1798 67.6243L27.5652 64.6001L20.2598 63.7438L12.9908 62.8876C11.4969 62.8876 10.2034 60.8472 9.63867 57.9141L20.1869 59.1165L32.5388 60.5375L51.5038 62.7236C51.6451 64.4714 52.2213 66.156 53.1798 67.6243Z" fill="#5BD3C7"/>
<path d="M22.1909 31.1699L30.5529 32.1537C29.3505 33.1375 28.4761 36.7446 28.4761 41.0259C28.4024 43.5468 28.7914 46.0599 29.6238 48.4406L21.8994 47.548V47.5297C20.6748 44.9326 20.1175 42.071 20.278 39.2041C20.2527 36.4103 20.9094 33.6526 22.1909 31.1699Z" fill="#99E0D4"/>
<path d="M20.2594 63.7441L27.5649 64.6004C25.4698 66.5679 23.9577 71.7783 23.9577 77.8996C23.7745 82.0906 24.6782 86.2577 26.5811 89.9964L19.3121 89.1401C17.3938 85.3999 16.4834 81.2244 16.6705 77.0251C16.6705 70.922 18.1643 65.7117 20.2594 63.7441Z" fill="#F7931E"/>
<path d="M12.9903 30.0957L22.1904 31.1706C20.9089 33.6532 20.2523 36.411 20.2775 39.2047C20.117 42.0716 20.6743 44.9332 21.8989 47.5304L12.9903 46.492C10.9863 46.492 9.34668 42.8301 9.34668 38.2938C9.34668 33.7575 10.9863 30.0957 12.9903 30.0957Z" fill="#5E5EEA"/>
<path d="M74.5316 53.7238L29.6241 48.4406C29.178 47.3051 28.878 46.1174 28.7314 44.9062L71.8718 49.9891C72.4366 52.0295 73.4021 53.4505 74.5316 53.7238Z" fill="#5B52D8"/>
<path d="M21.8987 47.5473V47.5291C21.2745 46.4326 20.8664 45.2267 20.6963 43.9766L28.7305 44.9057C28.877 46.1169 29.177 47.3045 29.6231 48.44L21.8987 47.5473Z" fill="#5BD3C7"/>
<path d="M21.8995 47.5293L12.9909 46.4909C11.6245 46.4909 10.4221 44.7784 9.80273 42.2461C10.167 42.6102 10.6545 42.8247 11.1691 42.8473L20.6971 43.9768C20.8672 45.2269 21.2754 46.4329 21.8995 47.5293Z" fill="#5B52D8"/>
<path d="M12.9908 62.8867L20.2598 63.743C18.1647 65.7105 16.6709 70.9209 16.6709 77.0239C16.4838 81.2232 17.3942 85.3987 19.3125 89.1389L12.9908 88.392C9.96661 88.392 7.52539 82.6897 7.52539 75.6394C7.52539 68.589 9.96661 62.8867 12.9908 62.8867Z" fill="#FFCA3A"/>
<path d="M74.3666 95.6078L63.4904 94.3325C62.2975 92.6525 61.489 90.7306 61.1221 88.7031L62.5613 88.8671L70.304 89.7051C71.1602 92.9479 72.6541 95.207 74.3666 95.6078Z" fill="#F7931E"/>
<path d="M63.4912 94.3327L56.1311 93.4764C54.978 91.8074 54.1896 89.9141 53.8174 87.9199L54.6008 88.011L61.1228 88.7033C61.4897 90.7308 62.2983 92.6527 63.4912 94.3327Z" fill="#F15A24"/>
<path d="M56.1302 93.4764L26.5805 89.9968C25.6417 88.3711 24.9885 86.5964 24.6494 84.75L53.8165 87.9199C54.1887 89.9141 54.9771 91.8074 56.1302 93.4764Z" fill="#F7931E"/>
<path d="M26.581 89.9957L19.312 89.1394C18.3755 87.5321 17.7223 85.7759 17.3809 83.9473L22.6641 84.5302L24.6499 84.7489C24.989 86.5953 25.6421 88.3699 26.581 89.9957Z" fill="#F15A24"/>
<path d="M19.3115 89.1401L12.9898 88.3932C11.1315 88.3932 9.51014 86.2617 8.52637 82.9824L14.7934 83.6747L17.3803 83.948C17.7218 85.7766 18.375 87.5329 19.3115 89.1401Z" fill="#F7931E"/>
<path d="M120.519 50.1353L120.55 50.1208C121.021 50.1071 121.469 49.9111 121.799 49.5741C122.129 49.237 122.315 48.7852 122.319 48.3135C122.321 48.0752 122.277 47.8388 122.187 47.6179C122.098 47.397 121.966 47.196 121.798 47.0265C121.631 46.8571 121.431 46.7226 121.211 46.6308C120.991 46.539 120.755 46.4917 120.517 46.4917C120.003 46.3278 118.655 44.1106 118.655 40.1154C118.655 36.1202 120.005 33.9031 120.519 33.7391L120.544 33.7263C120.991 33.6945 121.411 33.499 121.723 33.1773C122.035 32.8556 122.217 32.4302 122.235 31.9825C122.253 31.5347 122.106 31.096 121.821 30.7503C121.535 30.4045 121.133 30.1759 120.69 30.1082L61.975 23.2036C59.6894 22.9321 57.3797 22.9321 55.0941 23.2036L12.7736 28.2864H12.7462C9.31941 28.5233 7.52493 33.4312 7.52493 38.2936C7.40573 41.1847 8.16816 44.0438 9.7111 46.4917C8.16762 48.9394 7.40516 51.7986 7.52493 54.6899C7.42708 57.4728 8.12207 60.2262 9.52892 62.6293C7.013 65.1616 5.70312 70.4157 5.70312 75.6406C5.70312 82.8222 8.16438 90.093 12.8701 90.2151L74.7186 97.4914C74.7893 97.4995 74.8605 97.5032 74.9317 97.5023C75.0042 97.5026 75.0766 97.4984 75.1485 97.4895L89.5062 95.7661V102.968C89.5061 103.366 89.6366 103.754 89.8778 104.071C90.119 104.388 90.4575 104.618 90.8416 104.724C91.0001 104.767 91.1637 104.789 91.328 104.79C91.6423 104.789 91.9513 104.708 92.2249 104.553C92.4985 104.398 92.7274 104.175 92.8893 103.906L96.961 97.1197L100.801 102.239C101.031 102.545 101.351 102.771 101.716 102.885C102.081 102.999 102.472 102.995 102.835 102.874C103.198 102.753 103.513 102.521 103.737 102.211C103.96 101.901 104.081 101.528 104.081 101.146V94.019L120.694 92.0241C121.155 91.9692 121.578 91.7401 121.876 91.3837C122.174 91.0272 122.325 90.5703 122.297 90.1065C122.269 89.6426 122.065 89.2069 121.727 88.8885C121.389 88.57 120.942 88.3928 120.477 88.3933C119.202 88.3933 116.833 84.2432 116.833 77.4624C116.833 70.74 119.07 66.8486 120.477 66.5316C120.962 66.533 121.429 66.3422 121.774 66.0008C122.119 65.6594 122.315 65.1952 122.319 64.7098C122.323 64.2644 122.161 63.8334 121.866 63.4998C121.571 63.1661 121.163 62.9534 120.721 62.9025C120.649 62.894 120.577 62.8891 120.504 62.888C119.981 62.6876 118.655 60.4759 118.655 56.5117C118.655 52.5037 120.005 50.2993 120.519 50.1353ZM64.5238 92.6217C62.804 89.1719 61.9967 85.339 62.1791 81.4886C62.0458 77.7921 62.7645 74.1144 64.2796 70.74L70.2788 71.445C68.4198 74.9794 67.512 78.9365 67.6445 82.9278C67.5827 86.4627 68.2655 89.971 69.6485 93.2247L64.5238 92.6217ZM57.1709 91.7563C55.508 88.3246 54.7248 84.5332 54.8919 80.7235C54.7456 76.9955 55.4861 73.2861 57.0525 69.9001L60.4593 70.3009C59.1034 73.8714 58.4501 77.6703 58.5355 81.4886C58.4785 85.1067 59.0626 88.7063 60.2607 92.1207L57.1709 91.7563ZM27.7233 88.2949C26.3358 85.0136 25.6728 81.4715 25.7794 77.9106C25.5664 73.9569 26.4437 70.0207 28.3154 66.5316L53.0245 69.4337C53.0792 69.4337 53.1284 69.4665 53.183 69.4665C53.197 69.4674 53.211 69.4674 53.2249 69.4665C51.8431 73.0554 51.1717 76.8785 51.2483 80.7235C51.1956 84.3065 51.7664 87.8715 52.9353 91.259L27.7233 88.2949ZM20.4488 87.4405C19.0475 84.1521 18.3798 80.5979 18.4922 77.0252C18.2765 73.0797 19.146 69.1505 21.0063 65.6644L24.3985 66.0634C22.7997 69.8017 22.0255 73.8406 22.1285 77.9051C22.0859 81.2638 22.5779 84.608 23.586 87.8121L20.4488 87.4405ZM13.0304 61.0662C12.5167 60.9022 11.1685 58.6851 11.1685 54.6899C11.1685 50.7292 12.4912 48.5212 12.9758 48.3245L21.6057 49.3301C21.6366 49.3301 21.6603 49.3538 21.6895 49.3574L58.3333 53.6569C57.5179 56.0403 57.124 58.5475 57.1691 61.0662C57.1644 62.831 57.3532 64.5911 57.7321 66.3148L54.247 65.9067C53.3917 63.7931 52.9907 61.5231 53.0701 59.2444C53.0684 58.1561 53.1906 57.0712 53.4344 56.0107C53.4883 55.7775 53.4956 55.5361 53.4561 55.3001C53.4167 55.0641 53.3311 54.8382 53.2043 54.6352C53.0775 54.4323 52.912 54.2564 52.7172 54.1174C52.5224 53.9785 52.3021 53.8792 52.069 53.8254C51.8358 53.7716 51.5944 53.7642 51.3584 53.8037C51.1224 53.8432 50.8965 53.9288 50.6936 54.0555C50.4906 54.1823 50.3147 54.3479 50.1757 54.5427C50.0368 54.7374 49.9376 54.9577 49.8837 55.1909C49.5789 56.5205 49.4255 57.8803 49.4265 59.2444C49.4067 61.3356 49.6734 63.4196 50.2189 65.4385L27.6504 62.786H27.6122L20.3504 61.9297C20.334 61.9297 20.3195 61.9297 20.3031 61.9297L13.0304 61.0662ZM23.2653 33.1342L30.3394 33.9632H30.3576L70.8381 38.7345C69.8916 40.8907 69.4236 43.2264 69.4663 45.5808C69.4515 47.5643 69.7749 49.5358 70.4228 51.4106L30.9934 46.7814C30.5087 44.9021 30.2747 42.967 30.2975 41.0263C30.2949 39.8862 30.3649 38.7471 30.507 37.6159C30.5376 37.3786 30.5212 37.1375 30.4587 36.9065C30.3961 36.6756 30.2887 36.4592 30.1426 36.2697C29.9964 36.0802 29.8144 35.9214 29.6068 35.8023C29.3993 35.6832 29.1703 35.6061 28.933 35.5755C28.6956 35.5448 28.4546 35.5613 28.2236 35.6238C27.9926 35.6863 27.7762 35.7937 27.5868 35.9399C27.3973 36.0861 27.2385 36.2681 27.1193 36.4757C27.0002 36.6832 26.9232 36.9122 26.8925 37.1495C26.7307 38.4354 26.651 39.7303 26.6539 41.0263C26.6485 42.8066 26.815 44.5832 27.1512 46.3314L23.085 45.8541C22.3632 43.7139 22.0294 41.462 22.0994 39.2045C22.0974 37.1253 22.4931 35.0648 23.2653 33.1342ZM74.9317 39.2045C75.0036 39.2047 75.0754 39.2005 75.1467 39.1918L115.955 34.3002C115.313 36.1711 114.994 38.1375 115.011 40.1154C114.968 42.4748 115.438 44.8153 116.391 46.9745L74.9518 51.9408C74.4234 51.7312 73.1099 49.5396 73.1099 45.5808C73.1099 41.5856 74.4581 39.3685 74.9317 39.2045ZM61.6326 66.7721C61.0664 64.9238 60.7899 62.999 60.8127 61.0662C60.6842 58.6719 61.1419 56.2823 62.1463 54.1051L70.8436 55.1253C69.8933 57.2824 69.4234 59.6203 69.4663 61.9771C69.4515 63.9606 69.7749 65.9321 70.4228 67.8069L61.6326 66.7721ZM74.9572 68.3388C74.4253 68.1293 73.1099 65.9377 73.1099 61.9771C73.1099 57.9819 74.4581 55.7647 74.9317 55.6008C75.0042 55.6011 75.0766 55.5968 75.1485 55.588L115.957 50.6965C115.314 52.5672 114.994 54.5337 115.011 56.5117C114.976 58.8729 115.461 61.2129 116.432 63.3653L74.9572 68.3388ZM55.5259 26.8162C57.5259 26.5794 59.5469 26.5794 61.5469 26.8162L105.052 31.9319L74.9317 35.5481L30.7839 30.3451H30.7657L28.4538 30.0736L55.5259 26.8162ZM12.9667 31.9173L19.5397 32.6879C18.8234 34.7859 18.4571 36.9876 18.4558 39.2045C18.4387 41.2821 18.6668 43.3545 19.1353 45.3786L13.0304 44.6699C12.5167 44.506 11.1685 42.2888 11.1685 38.2936C11.1685 34.3621 12.473 32.1541 12.9667 31.9264V31.9173ZM12.9903 86.5715C11.7151 86.5715 9.34674 82.4214 9.34674 75.6406C9.34674 68.8999 11.675 64.7717 12.963 64.7189L17.1058 65.2053C15.5165 68.9384 14.7468 72.9691 14.8486 77.0252C14.8075 80.391 15.3051 83.7417 16.3224 86.9504L13.2035 86.586C13.1328 86.5766 13.0616 86.5717 12.9903 86.5715ZM98.2508 92.7656C98.0735 92.5242 97.8385 92.3311 97.5674 92.2038C97.2963 92.0765 96.9976 92.0192 96.6987 92.0369C96.4023 92.054 96.1145 92.1432 95.8605 92.2969C95.6065 92.4506 95.3939 92.664 95.2412 92.9186L93.1498 96.391V80.7635L100.437 79.8854V95.6805L98.2508 92.7656ZM104.081 90.3481V79.4464L105.225 79.3079C105.705 79.2507 106.142 79.005 106.441 78.6251C106.74 78.2452 106.876 77.7621 106.819 77.2821C106.762 76.802 106.516 76.3644 106.136 76.0655C105.756 75.7665 105.273 75.6307 104.793 75.688L102.06 76.0196H102.047L91.1166 77.3313C91.0966 77.3313 91.0802 77.3458 91.0602 77.3476L88.7902 77.6227C88.3294 77.6775 87.9069 77.9061 87.6089 78.2618C87.3109 78.6175 87.1598 79.0735 87.1865 79.5367C87.2133 80 87.4158 80.4356 87.7527 80.7547C88.0897 81.0737 88.5357 81.2522 88.9997 81.2536C89.0716 81.2538 89.1434 81.2496 89.2147 81.2408L89.5062 81.2044V92.097L74.9317 93.8459L74.7714 93.8277C73.5144 93.5235 71.2881 89.6376 71.2881 82.9278C71.2881 76.1471 73.6565 71.997 74.9317 71.997C75.0042 71.9973 75.0766 71.9931 75.1485 71.9843L115.194 67.1838C113.813 70.4317 113.13 73.9336 113.19 77.4624C113.058 81.4504 113.961 85.4046 115.811 88.9398L104.081 90.3481Z" fill="#472B3C"/>
</svg>
